<svg width="1452" height="299" viewBox="0 0 1452 299" fill="none" xmlns="http://www.w3.org/2000/svg">
<path d="M100.508 144.52C103.215 146.419 104.91 147.634 106.655 148.773C133.343 166.167 131.218 211.309 100.635 226.651C84.8248 234.576 67.7499 235.158 49.7643 234.044C47.513 221.689 48.7272 210.093 48.8537 198.169C54.343 195.637 59.8575 197.181 65.1697 196.7C73.8463 195.915 80.0439 191.637 81.5616 185.307C83.9142 175.484 80.145 169.23 70.3807 165.939C67.1766 164.92 63.8256 164.441 60.4646 164.521H49.8908C47.1082 153.761 49.309 143.355 48.4995 133.633C52.3951 130.013 56.3919 131.633 60.0093 131.101C71.6202 129.481 77.7166 120.113 73.9728 109.1C70.8108 99.5806 56.6955 96.5678 48.6766 103.682C42.8079 108.898 41.5431 115.885 41.4925 123.177C41.366 136.671 41.4925 150.166 41.4925 163.686C41.4925 182.649 41.4925 201.662 41.4925 220.575C41.4925 224.727 42.4032 228.98 39.9241 234.272H6.55849C0.613892 234.272 0.209155 230.322 0.209155 225.664C0.209155 197.434 0.0573783 169.18 0.209155 140.95C0.209155 129.228 -0.954468 117.48 2.20755 105.783C8.73396 81.5542 24.7464 67.4015 48.7272 63.5532C69.976 60.1606 89.707 64.6419 104.834 82.01C116.394 95.2766 119.734 114.544 112.828 129.025C110.172 134.849 104.227 138.064 100.508 144.52Z" fill="#293035"/>
<path d="M437.984 282.25C437.14 270.596 437.055 258.9 437.731 247.235C445.472 248.83 451.948 250.071 458.398 251.463C466.265 253.004 474.329 253.261 482.278 252.223C494.268 250.982 499.201 245.944 501.756 234.247C502.865 229.328 503.433 224.302 503.451 219.259C503.451 206.195 503.451 193.131 503.451 180.066C503.542 176.678 503.322 173.288 502.793 169.939C500.491 157.888 495.204 152.217 485.617 151.027C474.512 149.584 467.176 152.597 462.851 160.47C460.088 164.988 458.796 170.253 459.154 175.537C459.512 180.821 461.502 185.863 464.849 189.966C466.59 192.336 468.882 194.245 471.527 195.529C474.172 196.813 477.089 197.432 480.027 197.333C485.086 197.08 490.145 197.333 495.811 197.333C498.113 208.017 496.14 219.284 496.899 230.069C492.143 234.905 486.578 234.449 481.165 234.551C443.55 235.26 416.23 202.903 421.567 164.952C425.083 139.811 438.516 121.557 463.508 114.999C506.233 103.834 539.397 133.304 539.675 169.332C539.852 188.725 539.675 208.119 539.979 227.563C540.586 260.147 524.801 283.617 485.668 287.415C469.706 288.934 453.946 286.25 437.984 282.25Z" fill="#293035"/>
<path d="M736.935 197.359C743.588 197.359 749.001 197.561 754.364 197.359C767.391 196.751 774.803 187.966 774.601 173.585C774.399 159.204 766.759 151.153 753.377 150.976C740.729 150.824 732.736 157.66 731.42 170.167C730.94 174.775 731.142 179.434 731.117 184.067C731.117 213.562 731.117 243.032 731.117 272.528C731.117 285.338 731.117 285.364 717.735 285.414H696.284C695.304 284.605 694.555 283.552 694.111 282.361C693.667 281.17 693.544 279.883 693.754 278.629C693.754 243.184 693.754 207.866 693.754 172.471C693.754 154.875 699.648 139.558 713.106 127.633C731.673 111.176 753.327 108.594 775.537 116.797C797.747 125 809.838 142.115 812.267 165.433C814.594 187.51 809.206 207.106 791.575 222.221C776.979 234.728 759.929 236.728 741.817 234.703C741.075 234.66 740.35 234.465 739.686 234.13C739.023 233.794 738.436 233.326 737.961 232.753C737.486 232.181 737.135 231.517 736.928 230.803C736.721 230.088 736.663 229.339 736.758 228.601C736.96 218.119 736.935 207.688 736.935 197.359Z" fill="#2A3136"/>
<path d="M306.773 224.246C304.301 220.355 301.076 216.997 297.287 214.372C289.143 200.607 285.129 184.786 285.727 168.8C286.789 139.76 313.199 112.417 343.402 113.252C361.868 113.733 362.121 113.252 361.767 131.987C361.641 138.849 363.867 146.115 359.415 153.584C356.358 152.166 353.044 151.391 349.676 151.305C333.183 149.761 322.179 159.609 324.051 178.623C325.113 189.409 332.297 196.852 342.39 197.637C355.317 198.675 363.589 193.662 366.498 182.446C367.289 178.746 367.612 174.961 367.459 171.18C367.459 149.685 367.459 128.139 367.459 106.695C367.459 95.7322 367.307 84.7696 367.459 73.7816C367.585 66.6166 368.42 65.8824 375.453 65.6546C381.751 65.4267 388.101 65.5026 394.399 65.6546C404.518 65.8065 404.796 65.8824 404.821 76.5159C404.821 107.277 404.821 138.039 404.821 168.825C404.826 175.966 404.183 183.093 402.899 190.117C398.523 214.068 376.262 233.715 352.079 235.69C336.125 237.034 320.179 233.007 306.773 224.246Z" fill="#2A3136"/>
<path d="M944.667 173.686C947.196 209.005 915.146 236.069 885.524 235.892C852.993 235.69 825.168 207.916 825.319 174.167C825.271 158.235 831.419 142.91 842.463 131.436C853.507 119.962 868.579 113.241 884.487 112.695C915.45 111.353 946.893 140.039 944.667 173.686ZM906.723 172.623C907.659 163.154 902.144 156.217 893.417 151.381C885.676 147.102 878.669 149.913 872.269 154.546C866.375 158.799 864.68 165.559 863.719 172.268C862.302 183.256 871.156 195.713 881.553 198.295C890.432 200.472 901.486 193.687 905.407 183.788C906.544 180.182 906.999 176.396 906.748 172.623H906.723Z" fill="#293035"/>
<path d="M666.181 154.318L616.171 188.497C610.197 182.732 605.41 175.851 602.081 168.243C609.923 158.825 621.533 154.774 629.906 146.47C617.866 138.292 603.27 142.216 595.984 155.23C592.189 162.128 591.105 170.197 592.944 177.854C594.783 185.512 599.412 192.206 605.926 196.624C614.021 201.815 622.874 200.777 631.222 197.384C637.174 195.151 642.32 191.182 645.995 185.991C648.12 182.953 650.447 180.041 652.926 176.725C662.385 180.094 671.438 184.509 679.917 189.89C675.035 204.913 664.978 217.71 651.541 225.998C638.103 234.285 622.16 237.523 606.558 235.133C583.286 231.842 561.177 210.296 557.382 185.459C551.969 149.761 573.445 122.164 600.816 114.924C612.647 111.659 625.198 112.129 636.752 116.271C648.306 120.413 658.301 128.024 665.372 138.064C666.586 139.76 667.573 141.634 668.686 143.431C668.558 143.756 668.508 144.105 668.54 144.452C668.572 144.799 668.684 145.134 668.869 145.429C669.053 145.725 669.304 145.973 669.602 146.153C669.9 146.334 670.236 146.442 670.583 146.47C670.583 147.963 670.583 149.432 670.583 150.9C668.331 151.381 666.206 151.381 666.181 154.318Z" fill="#293035"/>
<path d="M1116.25 199.004C1116.95 210.558 1116.87 222.146 1116.02 233.69C1101.79 235.707 1087.28 233.961 1073.93 228.626C1058.17 222.246 1051.7 208.827 1050.51 192.675C1049.85 183.864 1050.18 174.952 1050.18 166.141C1050.18 143.811 1050.18 121.481 1050.18 99.1501C1050.18 95.0233 1049.24 90.7699 1051.7 85.7317C1063.19 85.145 1074.7 85.2887 1086.17 86.162C1089.29 95.2005 1086.55 104.188 1088.25 113.075C1096.98 117.506 1106.56 113.379 1115.95 116.138V147.963C1107.4 151.103 1097.94 147.533 1088.45 150.191C1087.35 163.497 1087.2 176.866 1088.02 190.193C1088.2 195.586 1092.25 198.498 1098.52 198.852C1103.96 199.257 1109.4 199.004 1116.25 199.004Z" fill="#2A3136"/>
<path d="M995.765 234.399C986.962 234.399 977.35 234.399 967.763 234.399C963.487 234.399 961.97 231.715 962.02 227.766C962.02 224.398 962.02 221.031 962.02 217.639C962.02 188.135 962.02 158.597 962.02 129.026C962.02 124.899 961.312 120.646 963.057 115.936C973.607 114.867 984.231 114.732 994.804 115.531C998.548 119.405 995.259 124.291 997.991 127.76C1014.86 115.633 1017.95 114.67 1037.5 115.911C1038.67 126.899 1037.78 138.09 1038.04 148.672C1034.22 152.318 1030.19 150.85 1026.55 151.204C1010.31 153.28 1001.1 162.8 999.256 179.206C997.486 194.751 997.966 210.322 997.865 225.892C998.318 228.894 997.563 231.953 995.765 234.399Z" fill="#2C3237"/>
<path d="M141.994 115.936H173.918C177.459 119.683 174.12 124.57 177.839 129.127C183.227 124.063 188.944 119.304 196.128 117.152C203.118 115.389 210.373 114.934 217.528 115.81V149.179C216.213 151.28 214.063 151.204 211.963 151.23C188.033 151.609 179.078 165.003 178.016 186.295C177.459 198.473 177.864 210.701 177.839 222.93V233.614C166.078 235.052 154.185 235.052 142.424 233.614C141.615 194.422 142.171 155.989 141.994 115.936Z" fill="#2A3136"/>
<path d="M268.652 115.936V139.406C268.652 166.37 268.652 193.333 268.652 220.423C268.652 234.931 269.436 234.88 253.93 234.551C246.872 234.399 239.713 235.336 232.934 233.817C230.404 224.601 229.671 132.545 232.074 116.063L268.652 115.936Z" fill="#293035"/>
<path d="M249.756 103.784C246.928 103.952 244.096 103.532 241.438 102.552C238.779 101.572 236.353 100.052 234.309 98.0885C232.266 96.1244 230.651 93.7586 229.566 91.1398C228.48 88.5209 227.947 85.7057 228.001 82.8709C228.001 71.0727 238.12 60.4898 249.275 60.7683C255.014 60.8071 260.51 63.0905 264.589 67.1306C268.668 71.1706 271.007 76.647 271.106 82.3898C271.182 94.8463 262.48 103.657 249.756 103.784Z" fill="#2E353A"/>
<path d="M670.532 150.976C670.532 149.508 670.532 148.039 670.532 146.545C672.303 146.723 673.239 147.685 672.91 149.432C672.784 149.943 672.468 150.387 672.026 150.674C671.585 150.961 671.051 151.069 670.532 150.976Z" fill="#8C8F92"/>
<path d="M666.182 154.318C666.182 151.381 668.382 151.28 670.457 151.052C670.482 154.04 668.332 154.09 666.182 154.318Z" fill="#8C8F92"/>
<path d="M670.608 146.495C670.261 146.468 669.925 146.359 669.628 146.179C669.33 145.998 669.079 145.75 668.894 145.454C668.71 145.159 668.597 144.824 668.565 144.477C668.533 144.13 668.583 143.781 668.711 143.457C669.048 143.507 669.369 143.629 669.654 143.816C669.939 144.003 670.179 144.249 670.36 144.538C670.54 144.826 670.656 145.151 670.699 145.489C670.742 145.827 670.711 146.17 670.608 146.495Z" fill="#8C8F92"/>
<rect width="93.4366" height="12.6487" transform="matrix(-0.23412 0.972208 0.972116 0.234501 1311.02 162.294)" fill="#AFE7FE"/>
<rect width="91.2377" height="12.6578" transform="matrix(-0.943843 -0.330395 -0.32989 0.944019 1428.46 169.393)" fill="#AFE7FE"/>
<rect width="91.2297" height="12.6589" transform="matrix(0.995629 -0.0933979 0.0932387 0.995644 1209.16 147.518)" fill="#AFE7FE"/>
<rect width="136.306" height="12.6533" transform="matrix(0.689447 0.724336 -0.723744 0.690069 1189.61 159.795)" fill="#AFE7FE"/>
<rect width="68.8747" height="12.6488" transform="matrix(0.265397 0.964139 -0.964022 0.265822 1306.35 53.1677)" fill="#AFE7FE"/>
<ellipse cx="1292.89" cy="269.884" rx="29.0906" ry="29.1156" fill="#5199CC"/>
<ellipse cx="1242.04" cy="184.821" rx="37.9443" ry="37.9769" fill="#5199CC"/>
<ellipse cx="1419.11" cy="162.035" rx="32.8851" ry="32.9133" fill="#5199CC"/>
<ellipse cx="1292.63" cy="32.9133" rx="32.885" ry="32.9133" fill="#5199CC"/>
<ellipse cx="1181.33" cy="154.439" rx="30.3554" ry="30.3815" fill="#5199CC"/>
<ellipse cx="1321.09" cy="142.413" rx="23.399" ry="23.4191" fill="#AFE7FE"/>
<rect width="124.869" height="14.3163" transform="matrix(0.757942 -0.652322 0.651678 0.758496 1303.4 255.343)" fill="#5199CC"/>
<rect width="91.2805" height="12.6518" transform="matrix(0.585545 0.81064 -0.810162 0.586207 1248.75 187.353)" fill="#5199CC"/>
<rect width="124.825" height="12.6589" transform="matrix(0.995629 -0.093398 0.0932387 0.995644 1269.87 175.619)" fill="#5199CC"/>
<rect width="114.41" height="12.6491" transform="matrix(-0.302637 0.953106 0.952955 0.303111 1278.27 58.2312)" fill="#5199CC"/>
<rect width="113.915" height="15.2621" transform="matrix(0.655848 -0.754893 0.754333 0.656492 1192.11 132.776)" fill="#5199CC"/>
<rect width="122.092" height="15.2629" transform="matrix(-0.701015 -0.713147 -0.712543 0.701628 1404.27 135.173)" fill="#5199CC"/>
</svg>
